<svg id="avatar" viewBox="0 0 680 680" xmlns="http://www.w3.org/2000/svg" class="size-full max-h-[320px] md:max-h-[520px]"><g stroke="none" transform="translate(100, 88)" stroke-width="1" fill="none" fill-rule="evenodd"><g id="head/mono/Bun-2">
        <path d="M297.60207,145.1631 C182.512269,140.9631 72.5396269,218.3121 35.5126119,327.6411 C32.8221984,336.2171 41.1949165,344.2281 49.6432527,342.7781 C41.0028862,386.2841 59.8865246,444.8441 109.075124,451.0161 C119.150245,452.2871 129.2781,451.5551 139.367151,452.4801 C148.359738,453.3041 197.315514,480.8441 215.647936,487.2961 C254.243032,500.7781 351.364433,498.3091 389.999328,487.2961 C391.406223,490.4961 421.410841,367.4501 428.243337,329.3001 C430.734983,312.770703 407.96731,300.533226 409.646189,283.50001 C411.802769,261.620212 437.395394,234.943114 429.554715,214.1131 C408.887085,161.0971 348.905988,146.3041 297.60207,145.1631 Z" id="ðŸŽ¨-Background" fill="#fff"></path>
        <path d="M240.4447,48.7877 C245.6147,49.2177 250.8147,49.9477 255.9247,50.9077 C271.4547,48.3677 287.5247,51.1877 302.5847,56.0777 C337.8547,67.5277 371.8047,87.4077 398.3847,113.3577 C412.0647,126.7177 423.2547,142.1077 430.1447,160.0077 C433.6447,169.0877 435.6147,178.7777 436.1847,188.4877 L436.248051,189.664413 C436.407996,192.886021 436.480589,196.749033 436.0957,200.5757 C437.3267,208.3007 438.4237,216.0887 438.5067,223.9017 C438.5457,227.5207 438.3107,231.1337 437.8707,234.7227 L438.0217,235.0637 L438.0217,235.0637 C437.3837,239.3487 436.6217,243.6157 435.7537,247.8607 L435.5367,248.1417 C435.4177,249.0047 435.2807,249.8657 435.1517,250.7267 C434.6797,252.9087 434.1867,255.0857 433.6637,257.2547 C432.5317,261.9517 431.2787,266.6177 429.9287,271.2557 C429.6927,272.0687 429.9197,272.7097 430.3627,273.1307 C429.3787,276.6607 428.3037,280.1647 427.1117,283.6307 C427.6967,286.6637 428.2877,289.6957 428.9147,292.7177 C432.1847,308.4377 434.9547,324.2577 438.6747,339.8877 C446.2147,371.6077 457.6747,402.8177 460.8247,435.4277 C463.2747,460.7177 459.2047,488.3677 443.4847,509.0277 C429.9347,526.8277 409.5547,537.3377 387.5447,540.1377 C377.0147,541.4877 366.2147,540.8677 355.9147,538.2077 L354.792469,537.911761 C349.632679,536.522837 343.069528,534.34839 338.2747,530.8477 C333.0747,529.0177 328.1647,525.6377 325.2047,522.3377 C321.1647,517.8277 316.7547,510.1177 317.8547,503.7077 C311.8447,504.1977 305.7947,504.3377 299.8447,504.3177 C285.1847,504.2877 270.3947,503.1277 256.2947,498.8677 C243.7147,495.0677 229.0547,488.7177 221.6147,477.2577 C221.2647,476.7177 221.8447,475.9377 222.4547,476.1477 C228.4647,478.2577 234.0847,481.1077 240.2847,482.7177 C246.3847,484.2977 252.4847,485.7877 258.7747,486.4377 C271.0723,487.7049 283.55422,487.534404 295.893108,486.925964 L300.128567,486.706027 C313.331436,485.998556 326.976615,484.990679 339.3247,480.0477 C344.1697,478.1097 348.6537,475.404575 352.742405,472.189537 L353.3847,471.6777 C355.5747,469.8977 357.8347,468.3977 360.1347,466.9777 C360.4647,466.5577 360.7947,466.1377 361.1247,465.7077 C366.3547,458.9977 371.9747,452.5277 376.6847,445.4377 C386.0447,431.3677 389.6547,416.7477 390.1447,399.9677 C390.6577,382.2557 390.7171,364.5194 390.92797,346.80254 L391.0047,340.8977 C391.2747,320.6377 391.3147,300.3077 392.8747,280.0977 C393.593367,270.708367 394.616922,261.362589 396.189278,252.084758 L396.5347,250.0977 L399.0747,235.7877 C399.6857,232.3407 400.0427,228.7887 400.8237,225.3567 C399.9457,223.9167 398.9307,222.5307 397.7537,221.2107 C396.6687,219.9937 395.5667,218.8127 394.4667,217.6397 L393.673969,216.939921 C391.861837,215.322794 390.305187,213.779551 388.845958,211.555076 L388.4937,211.0047 L388.4937,211.0047 C386.9267,209.1137 385.4487,207.1357 384.1427,204.9627 L383.9017,204.5407 L383.9017,204.5407 C383.5757,204.1317 383.2517,203.7217 382.9147,203.3177 C381.8677,202.0587 380.7697,200.8697 379.6347,199.7307 C375.6537,207.4207 370.0227,214.0817 362.0507,218.2457 C359.1677,219.7517 355.6507,218.4617 354.7057,215.2577 C352.3207,207.1697 348.6987,199.6487 343.9057,192.8377 C335.9027,206.1557 323.2127,216.5727 308.2577,221.6557 C304.5207,222.9257 301.2297,219.0057 302.1077,215.5047 C304.8057,204.7437 305.3427,193.8007 303.7577,182.9827 C298.1127,187.0167 292.2907,190.8157 286.3127,194.3377 C273.0097,204.6207 258.9147,213.8747 243.4107,220.5197 C239.8287,222.0557 234.4377,219.4747 236.0657,214.8737 C237.436271,210.9997 238.562828,207.061032 239.284437,203.016061 L239.4437,202.0807 C239.4487,202.0527 239.4507,202.0247 239.4547,201.9957 C203.54839,251.52738 116.473999,299.258616 109.790488,299.718287 L109.6087,299.7197 L109.6087,299.7197 C113.7827,303.7067 117.1517,308.6327 119.3557,314.2937 C121.670265,320.239363 112.231563,322.828208 109.790611,317.143124 L109.7127,316.9527 C105.9577,307.3067 96.6697,300.3927 86.5647,298.7577 C80.4567,299.8667 74.6837,302.8117 70.7447,307.2777 C62.9947,316.0677 62.9247,326.6677 68.2147,336.6677 L68.9908227,338.124743 C71.8547694,343.466936 74.8713667,348.821033 76.4847,354.6877 C78.4547,361.8877 76.9647,369.1877 78.2547,376.3777 L78.324799,376.758907 C78.9363716,379.955866 80.2570077,383.5927 84.0647,382.7177 C84.3587,382.6497 84.6427,382.5587 84.9257,382.4617 C85.7287,383.1017 86.6947,383.6307 87.8987,383.9817 C90.8467,384.8407 94.1037,384.4237 97.0377,383.7297 C99.8717,383.0597 102.6237,382.0087 105.2727,380.7787 C105.5657,381.5027 105.7467,382.2597 105.7647,382.9877 C105.8547,386.7077 104.3147,389.7677 101.9447,392.2577 C105.7247,397.0377 108.9547,402.2977 112.5947,407.1777 C117.8247,414.1777 123.1747,421.0277 128.8647,427.6577 C134.7847,434.5677 141.2347,441.0977 147.9247,447.2677 C152.6147,451.5877 160.3647,456.2077 163.3047,462.4777 C166.6847,463.5277 169.5547,466.1177 170.6047,470.3777 C172.5147,478.0977 173.0747,496.1877 171.5747,504.0377 C170.0847,511.8177 164.4047,516.6677 158.1247,520.7677 C156.3847,521.9077 154.4147,521.7877 152.8147,520.9377 C151.4047,522.3077 149.8147,523.5677 147.9947,524.6877 C141.2747,528.8377 133.4647,530.3477 125.7247,531.2177 C115.2747,534.5577 104.0047,535.4377 92.8647,533.3577 C89.2247,533.7877 85.5847,534.1777 81.9347,534.4977 C44.5947,537.7477 6.6347,534.9777 -29.7853,526.0877 C-46.4953,522.0077 -62.2743,514.5927 -76.9753,505.0677 C-102.3133,488.6507 -113.0373,442.5707 -98.3353,398.5177 L-97.1711884,395.043982 C-90.5462167,375.364354 -83.4019667,355.7877 -73.8253,337.4277 L-72.6819341,335.243602 C-63.8792931,318.497908 -54.1961333,301.7702 -41.3353,287.7977 C-34.8953,280.8077 -27.4153,274.4577 -18.9653,270.0177 C-15.7573,268.3337 -12.0123,267.1657 -8.3523,265.8407 L-8.27755,264.924825 L-8.27755,264.924825 L-8.1983,264.0097 C-7.9573,261.0757 -7.6503,258.1467 -7.2543,255.2247 C-5.7763,244.2967 -3.6903,233.5297 -0.7273,222.8987 C2.2397,212.2537 5.8877,201.7877 10.2767,191.6437 C17.5987,174.7197 26.7947,158.6657 37.4097,143.6017 C38.1677,142.0457 38.9367,140.4957 39.7247,138.9577 C48.6747,121.4677 60.2647,104.7877 75.2147,91.8777 C92.3747,77.0577 113.0447,67.8577 134.6147,61.3977 C156.9847,54.7077 180.3247,50.1277 203.6347,48.5877 C215.9047,47.7777 228.1947,47.7677 240.4447,48.7877 Z M76.8448,329.7682 C88.0748,322.4182 103.3748,327.4572 109.0648,339.3982 C113.1748,348.0482 99.5848,352.9182 97.4348,344.2982 C95.2948,335.6582 86.1048,329.4682 77.2748,330.7882 C76.6648,330.8882 76.2848,330.1282 76.8448,329.7682 Z" id="ðŸ–-Ink" fill="#000"></path>
    </g><g id="face/Smile" transform="translate(159.000000, 186.000000)" fill="#000000">
        <path d="M178.871914,230.917268 C172.084992,233.585341 164.066433,234.215552 157.061098,231.942304 C150.362703,229.768113 144.28029,224.929412 140.599925,218.84408 C137.321901,213.424001 135.952932,206.991935 137.890254,200.579759 C137.982934,200.27284 138.283597,200.076561 138.573641,200 C140.158597,201.44297 141.137823,202.876119 142.116194,204.302267 C143.765639,206.706626 145.418747,209.086307 147.687997,211.141935 C150.989651,214.132462 155.438004,216.561321 159.852826,217.362336 C164.175422,218.148364 168.599466,217.453721 172.469952,215.384705 C174.823771,214.127392 176.726931,212.446046 178.611487,210.757233 C180.663611,208.918256 182.683221,207.051286 185.509504,206.012861 C187.774373,205.180558 190.153432,205.882876 191.981074,207.275134 C193.945418,208.77153 195.357973,211.113879 195.279663,213.562705 C195.158382,217.356749 193.497588,220.521617 191.087827,223.132749 C187.829983,226.662832 183.223603,229.206343 178.871914,230.917268 Z M170.814304,136.367155 C178.365682,140.9572 189.871664,151.660291 181.748119,163.039573 C172.185929,173.073062 158.418535,161.568982 151.634201,156.366134 C145.343449,152.333898 138.275437,162.704507 144.112,167.412823 C193.135736,203.708059 213.030606,137.567387 174.633685,130.970386 C170.406047,130.243425 168.835891,134.947174 170.814304,136.367155 Z M91.388,72.7683 C101.68,72.2763 110.75,76.8983 120.558,78.9983 C129.622,80.9403 138.552,79.7743 147.367,77.3043 C161.673,73.2953 167.587,95.1953 153.476,99.4633 C143.2,102.5713 132.38,102.7873 121.835,101.1853 C112.468,99.7613 104.616,95.2013 95.685,92.5463 C88.0204884,90.2689512 79.0041303,91.2154163 70.9099803,92.2875982 L67.768,92.7103 C63.098,93.3393 58.403,93.9703 53.779,94.8833 C49.767,95.6763 45.762,97.1273 41.667,97.2953 C41.202,97.3153 40.808,96.7113 41.101,96.3083 C45.8578889,89.7777222 55.0259896,84.6248116 62.3187464,81.1879671 L62.813,80.9563 C71.815,76.7593 81.365,73.2463 91.388,72.7683 Z M87.6173265,120.923881 L87.6160369,120.698595 C87.6300369,114.321808 91.344047,99.7622157 100.524157,99.7622157 C106.259134,99.7622157 109.740999,109.67102 110.343765,119.885575 L110.3647,120.302049 C110.630879,126.652574 108.888163,140.533717 100.524157,140.533717 C92.071637,140.533717 87.7042339,127.386546 87.6173265,120.923881 L87.6173265,120.923881 Z M222.772617,120.923881 L222.773907,120.698595 C222.759907,114.321808 219.045897,99.7622157 209.865787,99.7622157 C204.274184,99.7622157 200.824446,109.181773 200.096775,119.120207 L200.046179,119.885575 C199.684084,126.021693 201.313826,140.533717 209.865787,140.533717 C218.318307,140.533717 222.68571,127.386546 222.772617,120.923881 L222.772617,120.923881 Z M222.631889,65.001572 L223.2885,65.016 C234.0165,65.388 245.0515,71.743 247.9155,82.418 C248.0635,82.972 247.3805,83.345 246.9755,82.965 C238.154379,74.7062828 226.291005,82.5977143 217.457956,86.7341044 L214.213553,88.2329098 C202.826322,93.5306845 189.875019,99.7591481 177.2315,95.811 C171.2265,93.936 167.4125,87.766 169.1255,81.534 C170.64941,75.9890149 177.342493,71.3290091 183.139632,73.330419 L183.4025,73.426 C188.1125,75.2276667 193.90375,73.40225 198.768148,71.6025278 L202.76406,70.1019862 C209.189584,67.6637959 215.644819,64.9359718 222.631889,65.001572 L222.631889,65.001572 Z" id="ðŸ–-Ink" fill="#000000"></path>
    </g><g id="facial-hair/*-None" transform="translate(123.000000, 338.000000)">
        <path d="M227.9943,104.3107 C218.6813,96.0137 208.2423,79.3337 194.8633,92.5317 C191.5543,96.2607 190.2143,104.6207 185.1543,106.2607 C178.4343,108.4407 171.7743,101.3307 169.4843,95.8707 C160.1143,65.5337 198.8483,57.2127 220.9143,62.1137 C231.6943,66.5407 239.6343,84.3607 240.1143,93.6607 C240.4243,99.9107 235.1343,109.1007 227.9943,104.3107 M298.2543,57.5507 C298.1633,57.1477 298.0363,56.7837 297.8833,56.4527 C293.7643,54.8957 290.5053,56.4837 288.4913,59.4497 C288.5573,60.1867 288.7773,60.9337 288.9163,61.6647 C287.3623,64.9387 285.9603,68.9897 283.8543,71.8187 C283.4383,71.8507 283.0073,71.8067 282.5933,71.6867 C247.6803,75.3327 264.7253,38.8037 229.3143,29.7307 C201.9413,25.2147 152.4673,30.3877 139.5543,58.8787 C129.3703,104.3867 77.5873,72.6767 60.5853,49.0097 C42.4443,27.4707 30.7143,1.1507 19.4043,-24.3893 C17.0143,-29.7943 9.5553,-25.9293 10.3663,-20.7433 C-0.0877,0.2277 0.2603,25.4177 -2.3287,48.3917 C-6.7327,94.2267 -11.0237,158.5047 31.5633,186.4917 C87.0503,249.2087 225.6083,271.3407 289.6063,213.7147 C311.7603,166.0847 309.0293,107.9777 298.2543,57.5507" id="ðŸ–-Ink" fill="#000"></path>
    </g><g id="accessories/*-None" transform="translate(47.000000, 241.000000)">
        <path d="M389.0901,63.2824 C379.5561,127.7714 313.0021,134.9034 301.1771,70.8814 C303.0751,70.0504 304.4401,68.4144 304.1551,65.2384 C304.0881,51.2864 308.4191,36.5404 321.0051,28.7814 C334.0111,20.7754 349.2321,19.9814 364.2831,20.1834 C393.0051,19.4994 392.4011,43.5064 389.0901,63.2824 M290.7581,35.2354 C281.7441,34.8554 270.3401,35.1734 262.2651,40.6654 C260.0451,34.6874 254.2771,28.3044 248.4491,24.8914 C270.1111,25.5254 292.4091,23.3934 314.2331,21.7384 C309.0091,25.2994 304.1491,30.6494 300.9901,36.8344 C298.0591,35.2714 293.8611,35.4174 290.7581,35.2354 M251.0261,70.1194 C226.0311,156.1554 163.6401,118.6554 156.8381,107.6294 C144.5691,89.3834 142.2611,45.0294 152.9481,33.1704 C168.2461,22.4464 189.9031,25.2064 207.9751,24.9434 C241.1761,25.3914 264.7561,35.3234 251.0261,70.1194 M418.6031,30.5484 C411.8121,29.6604 404.5551,29.4814 398.2411,32.4714 C396.2971,24.2084 390.1941,17.3004 383.3031,14.2604 C382.4691,13.2144 382.5941,12.6524 379.7451,12.8094 C362.2501,7.5514 342.6731,10.3334 325.8611,15.7254 C299.3091,17.9614 271.4521,19.7244 244.6771,22.8054 C219.5951,11.5414 143.9021,9.8904 139.1981,37.6534 C133.2811,36.7684 123.2041,32.1114 118.2321,38.4284 C81.7611,32.2454 44.0761,40.8384 7.4471,44.6654 C-1.7729,46.3634 -6.5219,64.6614 3.9441,64.4114 C9.8281,62.8144 3.7631,53.0174 11.6861,52.2804 C47.0271,48.4204 81.5951,42.9444 117.2981,42.3034 C116.0561,48.4684 140.9121,48.8694 141.2791,45.2694 C141.3321,45.2964 141.3881,45.3144 141.4421,45.3384 C135.3001,68.2284 140.8441,101.1704 151.9441,115.3644 C167.4961,133.9504 206.5411,139.2824 223.8541,127.3244 C246.1871,116.2874 269.4201,60.8854 262.8941,42.4794 C274.7381,38.7254 286.4471,39.8524 298.7391,41.7644 C295.9251,49.7134 291.0671,69.2814 298.0561,70.9784 C296.7731,109.8284 332.1301,134.0694 364.7241,118.1324 C392.9351,104.8894 402.8011,62.9714 399.3491,37.5284 C402.8611,44.3144 432.3491,36.9264 418.6031,30.5484" id="ðŸ–-Ink" fill="#000000"></path>
    </g></g></svg>